<svg xmlns="http://www.w3.org/2000/svg" viewBox="0 0 1600 940" role="img" aria-labelledby="title desc">
  <title id="title">Merchant intelligence dashboard product tour</title>
  <desc id="desc">A dashboard preview showing filters, decision brief, overview cards, actionable insights, an evidence chart, and traceability.</desc>
  <defs>
    <linearGradient id="canvas" x1="0" y1="0" x2="1" y2="1"><stop stop-color="#f9f8ff"/><stop offset="1" stop-color="#f5f0ff"/></linearGradient>
    <linearGradient id="brief" x1="0" y1="0" x2="1" y2="1"><stop stop-color="#f1edff"/><stop offset="1" stop-color="#fff9ea"/></linearGradient>
    <filter id="shadow"><feDropShadow dx="0" dy="12" stdDeviation="16" flood-color="#241d45" flood-opacity=".12"/></filter>
  </defs>
  <rect width="1600" height="940" rx="34" fill="#15102f"/>
  <rect x="30" y="30" width="1540" height="880" rx="25" fill="url(#canvas)"/>
  <rect x="30" y="30" width="1540" height="72" rx="25" fill="#fff"/><rect x="30" y="77" width="1540" height="25" fill="#fff"/>
  <rect x="64" y="49" width="38" height="38" rx="11" fill="#6644cc"/><text x="83" y="75" font-family="Inter,Segoe UI,sans-serif" font-size="16" font-weight="800" text-anchor="middle" fill="#fff">ZI</text>
  <text x="118" y="71" font-family="Inter,Segoe UI,sans-serif" font-size="22" font-weight="800" fill="#211a40">Merchant Intelligence</text>
  <rect x="1384" y="50" width="150" height="34" rx="17" fill="#fff2cf"/><text x="1459" y="72" font-family="Inter,Segoe UI,sans-serif" font-size="14" font-weight="700" text-anchor="middle" fill="#805b0d">FRONTEND PREVIEW</text>
  <rect x="62" y="130" width="250" height="742" rx="22" fill="#fff" stroke="#e4e0ef"/>
  <text x="88" y="172" font-family="Inter,Segoe UI,sans-serif" font-size="13" font-weight="800" letter-spacing="2" fill="#6644cc">SCOPE CONTROLS</text><text x="88" y="205" font-family="Inter,Segoe UI,sans-serif" font-size="23" font-weight="800" fill="#211a40">Advanced filters</text>
  <g fill="#f6f4fa" stroke="#ded9e9"><rect x="86" y="240" width="202" height="48" rx="10"/><rect x="86" y="316" width="202" height="48" rx="10"/><rect x="86" y="392" width="95" height="48" rx="10"/><rect x="193" y="392" width="95" height="48" rx="10"/><rect x="86" y="468" width="202" height="48" rx="10"/><rect x="86" y="544" width="202" height="48" rx="10"/><rect x="86" y="620" width="202" height="48" rx="10"/></g>
  <g font-family="Inter,Segoe UI,sans-serif" font-size="12" font-weight="700" fill="#615a74"><text x="88" y="231">MERCHANT</text><text x="88" y="307">CATEGORY</text><text x="88" y="383">DATE RANGE</text><text x="88" y="459">PAYMENT STATUS</text><text x="88" y="535">ATTEMPT COUNT</text><text x="88" y="611">TERMINAL</text></g>
  <rect x="86" y="718" width="202" height="46" rx="12" fill="#6644cc"/><text x="187" y="747" font-family="Inter,Segoe UI,sans-serif" font-size="15" font-weight="800" text-anchor="middle" fill="#fff">Apply scope</text>
  <rect x="342" y="130" width="1196" height="214" rx="25" fill="url(#brief)" stroke="#ddd3fb" filter="url(#shadow)"/><rect x="342" y="130" width="7" height="214" rx="4" fill="#6644cc"/>
  <text x="382" y="172" font-family="Inter,Segoe UI,sans-serif" font-size="13" font-weight="800" letter-spacing="2" fill="#6644cc">MERCHANT DECISION BRIEF</text><text x="382" y="218" font-family="Inter,Segoe UI,sans-serif" font-size="33" font-weight="800" fill="#211a40">Know what matters before opening a chart.</text>
  <g font-family="Inter,Segoe UI,sans-serif"><rect x="382" y="256" width="268" height="62" rx="13" fill="#fff" stroke="#e2deec"/><rect x="658" y="256" width="268" height="62" rx="13" fill="#fff" stroke="#e2deec"/><rect x="934" y="256" width="268" height="62" rx="13" fill="#fff" stroke="#e2deec"/><rect x="1210" y="256" width="288" height="62" rx="13" fill="#fff" stroke="#e2deec"/><text x="402" y="281" font-size="12" font-weight="800" fill="#3d8a65">CURRENT STATUS</text><text x="678" y="281" font-size="12" font-weight="800" fill="#c1484d">MAIN PROBLEM</text><text x="954" y="281" font-size="12" font-weight="800" fill="#6644cc">OPPORTUNITY</text><text x="1230" y="281" font-size="12" font-weight="800" fill="#a56d00">FIRST ACTION</text></g>
  <text x="342" y="388" font-family="Inter,Segoe UI,sans-serif" font-size="13" font-weight="800" letter-spacing="2" fill="#6644cc">MERCHANT OVERVIEW</text>
  <g filter="url(#shadow)"><rect x="342" y="410" width="285" height="130" rx="20" fill="#fff"/><rect x="645" y="410" width="285" height="130" rx="20" fill="#fff"/><rect x="948" y="410" width="285" height="130" rx="20" fill="#fff"/><rect x="1251" y="410" width="287" height="130" rx="20" fill="#fff"/></g>
  <g font-family="Inter,Segoe UI,sans-serif"><text x="368" y="446" font-size="13" font-weight="700" fill="#736d82">Payment volume</text><text x="368" y="493" font-size="29" font-weight="800" fill="#211a40">Evidence-backed</text><text x="671" y="446" font-size="13" font-weight="700" fill="#736d82">Successful sessions</text><text x="671" y="493" font-size="29" font-weight="800" fill="#3d8a65">Session-safe</text><text x="974" y="446" font-size="13" font-weight="700" fill="#736d82">Failed sessions</text><text x="974" y="493" font-size="29" font-weight="800" fill="#c1484d">Attention</text><text x="1277" y="446" font-size="13" font-weight="700" fill="#736d82">Retry recovery</text><text x="1277" y="493" font-size="29" font-weight="800" fill="#a56d00">Opportunity</text></g>
  <text x="342" y="584" font-family="Inter,Segoe UI,sans-serif" font-size="13" font-weight="800" letter-spacing="2" fill="#6644cc">ACTIONABLE INSIGHTS</text>
  <rect x="342" y="606" width="571" height="266" rx="22" fill="#fff" stroke="#e4e0ef"/><rect x="932" y="606" width="606" height="266" rx="22" fill="#fff" stroke="#e4e0ef"/>
  <text x="372" y="651" font-family="Inter,Segoe UI,sans-serif" font-size="21" font-weight="800" fill="#211a40">Evidence → impact → action</text><rect x="372" y="680" width="511" height="58" rx="13" fill="#f8f6fc"/><rect x="372" y="752" width="511" height="90" rx="13" fill="#fff7e7"/>
  <text x="962" y="651" font-family="Inter,Segoe UI,sans-serif" font-size="21" font-weight="800" fill="#211a40">Evidence story</text>
  <path d="M982 807C1050 775 1087 784 1148 735S1265 791 1324 706 1425 735 1490 677" fill="none" stroke="#6644cc" stroke-width="6" stroke-linecap="round"/><path d="M982 828H1490" stroke="#e4e0ef" stroke-width="2"/><g fill="#fff" stroke="#6644cc" stroke-width="4"><circle cx="982" cy="807" r="7"/><circle cx="1148" cy="735" r="7"/><circle cx="1324" cy="706" r="7"/><circle cx="1490" cy="677" r="7"/></g>
</svg>
